<svg id="Layer_1" data-name="Layer 1" xmlns="http://www.w3.org/2000/svg" viewBox="0 0 45 45"><defs><style>.cls-1{fill:#b1c5b9;}</style></defs><title>cross-frame</title><path class="cls-1" d="M31.89,35.71a3.27,3.27,0,1,0,4.36-3.07V25.69a3.25,3.25,0,0,0,0-6.14v-7a3.27,3.27,0,1,0-2.18,0v7a3.25,3.25,0,0,0,0,6.14v7A3.26,3.26,0,0,0,31.89,35.71Z"/><path class="cls-1" d="M28.62,30.26H11.16a1.09,1.09,0,0,0-1.09,1.09v8.8a1.09,1.09,0,0,0,1.09,1.09H28.62a1.09,1.09,0,0,0,1.09-1.09v-8.8A1.09,1.09,0,0,0,28.62,30.26ZM15.52,36.8a1.09,1.09,0,1,1,1.09-1.09A1.09,1.09,0,0,1,15.52,36.8Zm8.73,0H19.89a1.09,1.09,0,0,1,0-2.18h4.36a1.09,1.09,0,0,1,0,2.18Z"/><path class="cls-1" d="M5.7,18.26V27a1.09,1.09,0,0,0,1.09,1.1H28.62A1.09,1.09,0,0,0,29.71,27V18.26a1.09,1.09,0,0,0-1.09-1.09H6.79A1.09,1.09,0,0,0,5.7,18.26Zm9.82,3.27h8.73a1.09,1.09,0,1,1,0,2.18H15.52a1.09,1.09,0,0,1,0-2.18Zm-4.36,0a1.09,1.09,0,1,1-1.09,1.09A1.09,1.09,0,0,1,11.16,21.53Z"/><path class="cls-1" d="M28.62,15a1.09,1.09,0,0,0,1.09-1.09V5.09A1.09,1.09,0,0,0,28.62,4H11.16a1.09,1.09,0,0,0-1.09,1.09v8.8A1.09,1.09,0,0,0,11.16,15ZM19.89,8.44h4.36a1.09,1.09,0,0,1,0,2.18H19.89a1.09,1.09,0,0,1,0-2.18Zm-4.37,0a1.09,1.09,0,1,1-1.09,1.09A1.09,1.09,0,0,1,15.52,8.44Z"/></svg>