<svg id="Layer_1" data-name="Layer 1" xmlns="http://www.w3.org/2000/svg" viewBox="0 0 45 45"><defs><style>.cls-1{fill:#b1c5b9;}</style></defs><title>filter-type copy</title><path class="cls-1" d="M40.08,18.1a3.84,3.84,0,0,0-2.95-1.36H24.36a5.35,5.35,0,0,0-2.42.57l-4.23,2.11a3.83,3.83,0,0,1-1.73.41H7.87a3.87,3.87,0,0,0-3.79,4.63L6.19,34.94a2.33,2.33,0,0,0,2.28,1.91h27.9a2.31,2.31,0,0,0,2.29-2L41,21.24A3.86,3.86,0,0,0,40.08,18.1Z"/><path class="cls-1" d="M35.64,12.09H22.73a2.32,2.32,0,0,1-1.64-.68l-1.28-1.28A3.83,3.83,0,0,0,17.08,9H10.89A3.88,3.88,0,0,0,7,12.87v5.5a4,4,0,0,1,.78-.09H16a3.83,3.83,0,0,0,1.73-.41l4.23-2.11a5.48,5.48,0,0,1,2.42-.57H37.18a4,4,0,0,1,.78.08v-.86A2.33,2.33,0,0,0,35.64,12.09Z"/></svg>