<svg id="Layer_1" data-name="Layer 1" xmlns="http://www.w3.org/2000/svg" viewBox="0 0 45 45"><defs><style>.cls-1{fill:#b1c5b9;}</style></defs><title>gpu</title><path class="cls-1" d="M33.5,22.13a9.64,9.64,0,0,0-9.62-9.6h0a9.63,9.63,0,0,0-9.6,9.62h0v0a9.64,9.64,0,0,0,9.62,9.6h0a9.63,9.63,0,0,0,9.62-9.62h0v0Zm-4-2.72a8.56,8.56,0,0,0-3.49.08,3.43,3.43,0,0,0-1.54-.69,5.18,5.18,0,0,1,.4-2.8,6.23,6.23,0,0,1,4.63,3.41Zm-8.33-2.85a8.74,8.74,0,0,0,.07,3.49,3.26,3.26,0,0,0-.68,1.54,5.4,5.4,0,0,1-2.81-.4,6.25,6.25,0,0,1,3.42-4.63Zm-2.85,8.33a9,9,0,0,0,1.56.14,8.32,8.32,0,0,0,1.92-.22,3.42,3.42,0,0,0,1.55.69,5.38,5.38,0,0,1-.4,2.8,6.24,6.24,0,0,1-4.63-3.41Zm8.32,2.85a8.74,8.74,0,0,0-.07-3.49,3.26,3.26,0,0,0,.68-1.54,5.4,5.4,0,0,1,2.81.4A6.25,6.25,0,0,1,26.61,27.74Z"/><path class="cls-1" d="M36.47,11.4h-4.2a.35.35,0,0,0-.22.62,13,13,0,0,1,0,20.26.35.35,0,0,0,.22.62h4.2a3.82,3.82,0,0,0,3.82-3.82V15.22A3.82,3.82,0,0,0,36.47,11.4Z"/><path class="cls-1" d="M15.71,32.28a13,13,0,0,1,0-20.26.35.35,0,0,0-.23-.62H10.86V9.7A1.7,1.7,0,0,0,9.16,8H5.76a1.7,1.7,0,0,0,0,3.4h1.7V34.6a1.7,1.7,0,1,0,3.4,0V32.9h4.62a.35.35,0,0,0,.23-.62Z"/></svg>