<svg id="Layer_1" data-name="Layer 1" xmlns="http://www.w3.org/2000/svg" viewBox="0 0 45 45"><defs><style>.cls-1{fill:#b1c5b9;}</style></defs><title>pre-filters</title><path class="cls-1" d="M31.5,3H6.07A2.83,2.83,0,0,0,3.24,5.79V8.9A4.4,4.4,0,0,0,4.54,12L14,21.45a2,2,0,0,1,.6,1.43V35.67a1.21,1.21,0,0,0,.7,1.1,1.3,1.3,0,0,0,.51.11,1.24,1.24,0,0,0,.79-.29l4.52-3.88a4.41,4.41,0,0,0,1.55-3.37V22.91a2,2,0,0,1,.62-1.45L33,12.07a4.5,4.5,0,0,0,1.36-3.2V5.79A2.83,2.83,0,0,0,31.5,3Z"/><path class="cls-1" d="M39.17,22.34H28.68a2.83,2.83,0,0,0-2.83,2.83V38.9a2.83,2.83,0,0,0,2.83,2.82H39.17A2.83,2.83,0,0,0,42,38.9V25.17A2.83,2.83,0,0,0,39.17,22.34ZM35.94,36.07h-4a1.21,1.21,0,0,1,0-2.42h4a1.21,1.21,0,1,1,0,2.42Zm0-4.84h-4a1.22,1.22,0,0,1,0-2.43h4a1.22,1.22,0,1,1,0,2.43Z"/></svg>