<svg id="Layer_1" data-name="Layer 1" xmlns="http://www.w3.org/2000/svg" viewBox="0 0 45 45"><defs><style>.cls-1{fill:#b1c5b9;}</style></defs><title>threads</title><path class="cls-1" d="M19.45,19.45v6.17h6.17V19.45Zm4.11,4.11h-2v-2h2Z"/><path class="cls-1" d="M37,23.56a3.08,3.08,0,0,0-2.9,2.06H31.78V19.45h2.31a3.09,3.09,0,1,0,0-2.05H31.78V13.29H29.73V10.77l.95-.47a3.08,3.08,0,1,0-.95-2.22c0,.13,0,.25,0,.38l-2.09,1v3.79H23.56V11a3.09,3.09,0,1,0-2,0v2.31H17.4V9.5l-2.1-1a2.45,2.45,0,0,0,0-.38,3.09,3.09,0,1,0-.95,2.22l.95.47v2.52H13.29V17.4H11a3.09,3.09,0,1,0,0,2.05h2.31v6.17H11a3.09,3.09,0,1,0,0,2.05h2.31v4.11h2.05V34.3l-.95.47A3.08,3.08,0,1,0,15.34,37a2.45,2.45,0,0,0,0-.38l2.1-1V31.78h4.11v2.31a3.09,3.09,0,1,0,2,0V31.78h4.11v3.79l2.09,1c0,.13,0,.25,0,.38a3.11,3.11,0,1,0,.95-2.22l-.95-.47V31.78h2.05V27.67h2.31A3.08,3.08,0,1,0,37,23.56Zm-9.32,4.11H17.4V17.4H27.67Z"/></svg>